<?xml version="1.0" encoding="UTF-8"?>
<svg id="Layer_2" data-name="Layer 2" xmlns="http://www.w3.org/2000/svg" viewBox="0 0 545.06 538.45">
  <g id="Layer_1-2" data-name="Layer 1">
    <g>
      <path d="m93.71,288.57c-10.04-18.76-18.95-36.82-29.2-54.1-7.47-12.59-10.68-25.26-10.52-40.03.67-61.49.3-122.98.3-184.47,0-9.55.41-9.95,9.73-9.95,24.83,0,49.66,0,74.49-.02,7.5,0,8.41.85,8.41,8.21,0,38.5,0,76.99,0,115.49,0,2.28,0,4.56,0,7.39,8.2,0,15.82,0,23.44,0,8.67,0,17.33.1,25.99-.14,1.59-.04,3.91-1.1,4.61-2.38,6.67-12.27,14.09-15.81,28.94-13.04,9.2-45.82,32.78-81.32,75.85-101.82C334.63-.04,364.94-2.31,395.9,5.42c57.97,14.47,100.88,71.14,99.87,129.95-1.06,61.91-44.5,117.53-109.45,129.52-35.81,6.61-69.38-.26-99.41-21.12-29.72-20.65-47.84-49.41-55.86-84.55-15.74,4.21-22.9,1-31.52-13.95h-52.23c-.16,1.26-.45,2.51-.45,3.76,0,20.16.14,40.33,0,60.49-.02,3.02-.73,6.32-2.11,8.99-10.27,19.98-20.79,39.83-31.21,59.73-1.6,3.05-3.08,6.17-4.98,10,2.64.12,4.54.27,6.44.27,137.15,0,274.3-.02,411.45-.04,1.33,0,2.66-.07,4-.11,7.34-.21,10.11,3.27,7.85,10.34-.45,1.39-2.25,2.66-3.72,3.32-1.26.57-2.95.22-4.45.22-172.48,0-344.95-.01-517.43-.02-7.05,0-10.14-4.3-7.02-10.67.84-1.72,4.24-3.07,6.47-3.09,23.33-.14,46.66.03,69.99.11,3.48.01,6.96,0,11.59,0Zm268.61-34.51c6.13-.61,12.29-.97,18.37-1.88,56.68-8.5,100.47-58.78,101.29-116.16.9-63.07-48.71-116.74-111.65-120.8-56.34-3.64-107.31,32.09-122.7,86.35-2.92,10.31-5.79,20.71-2.65,31.81,1.05,3.72-.46,8.17-.83,12.28-.13,1.45-.61,2.93-.43,4.33,7.46,58.37,59.8,104.14,118.6,104.08ZM107.53,80.05v123.79h25.38v-123.79h-25.38Zm-14.5,123.89v-123.76h-24.57v123.76h24.57Zm36.33,14.36h-57.87c.93,1.85,1.54,3.17,2.24,4.44,4.65,8.43,9.45,16.78,13.93,25.31,5.88,11.19,5.78,11.29,18.4,10.19,1.26-.11,3.06-.84,3.58-1.82,6.58-12.44,12.97-24.99,19.72-38.11ZM68.52,14.05v20.5h64.28V14.05h-64.28Zm-.18,50.85h64.43v-15.38h-64.43v15.38Zm154.04,82.91c5.12-.01,9.54-4.62,9.64-10.05.11-5.68-4.23-10.12-9.94-10.17-5.46-.05-9.99,4.6-9.95,10.21.04,5.47,4.7,10.02,10.25,10.01Z"/>
      <path d="m327.96,387.87v63.69h-7.03v-76.87c3.87-1.43,6.43-.28,8.94,2.93,14.76,18.9,29.72,37.64,44.62,56.43.6.75,1.25,1.46,2.63,3.07v-62.67h7.61v76.58c-3.74,1.55-6.14.37-8.54-2.7-14.68-18.75-29.55-37.35-44.36-55.99-.9-1.13-1.89-2.19-3.85-4.47Z"/>
      <path d="m166.71,425.1v26.28h-7.4v-77.88c13.41.66,26.95.26,40.12,2.27,13.25,2.02,19.71,12.83,18.61,27.08-.96,12.43-9.25,21.16-22.27,22.12-9.4.69-18.89.14-29.07.14Zm.29-43.23v36.78c1.59.11,2.88.29,4.17.26,7.8-.19,15.64.05,23.37-.78,10.2-1.09,15.44-7.28,15.78-17.23.34-10.26-4.52-17.59-14.54-18.79-9.29-1.12-18.81-.24-28.78-.24Z"/>
      <path d="m243.26,374.37h51.61v6.45h-43.83v28.14h38.97v6.11h-38.94v29.91h45.21v6.35h-53.02v-76.97Z"/>
      <path d="m0,374.25h51.51v6.65H7.63v27.85h39.08c.11,2.35.19,4.08.3,6.36H7.63v29.79h45.42v6.38H0v-77.03Z"/>
      <path d="m415.42,428.83c6.47,15.07,17.93,20.68,32.98,16.35,6.77-1.95,11.04-6.69,11.56-12.86.46-5.42-2.48-10.18-9.19-12.82-5.84-2.29-12.08-3.53-18.13-5.29-3.18-.93-6.45-1.7-9.48-3-13.31-5.74-15.94-20.64-5.97-31.15,10.6-11.18,42.64-10.75,47.99,10.57-1.74,1.1-3.63,2.29-5.54,3.5-7.55-13.55-18.6-17.95-31.58-12.76-5.81,2.33-9.2,6.85-9.25,12.38-.06,5.68,2.5,9.23,9.21,11.47,5.82,1.93,11.9,3.06,17.77,4.87,3.95,1.21,7.95,2.57,11.53,4.58,6.76,3.79,10.2,9.72,9.94,17.7-.26,7.93-4.03,13.55-10.89,17.19-13.54,7.19-33.78,3.57-42.03-7.5-.89-1.19-1.69-2.48-2.38-3.8-3.02-5.77-2.83-6.27,3.45-9.42Z"/>
      <path d="m545.06,444.93v6.48h-52.83v-76.9h51.46v6.29h-43.88v28.28h38.95v5.9h-38.79v29.96h45.09Z"/>
      <path d="m71.38,374.8c6.7-1.96,10.35.45,13.66,5.6,5.72,8.9,12.26,17.28,18.71,26.22,6.59-9.02,13.17-17.39,19-26.27,3.21-4.89,6.54-7.75,13.27-5.45-9.24,12.48-18.46,24.95-27.73,37.47,9.67,12.93,19.22,25.69,29.1,38.9-5.58,1.1-9.47.65-12.76-4.27-6.45-9.65-13.58-18.85-20.84-28.81-6.86,9.55-13.51,18.82-20.16,28.1q-4.34,6.05-13.06,5.21c9.62-13.12,19.03-25.94,28.62-39.02-9.2-12.47-18.35-24.88-27.8-37.68Z"/>
      <path d="m115.59,479.94c10.03,0,19.67-.61,29.19.18,8.83.73,13.92,6.53,14.58,14.4.83,9.98-2.66,15.5-11.84,18.77-.61.22-1.19.52-2.28.99,5.16,7.5,10.18,14.8,15.34,22.3-3.67,1.55-5.96.53-7.95-2.57-3.69-5.73-7.51-11.39-11.61-16.83-1.08-1.44-3.31-2.64-5.1-2.79-4.76-.38-9.57-.13-14.87-.13v22.62c-2.03.15-3.57.26-5.44.4v-57.35Zm5.51,4.39v25.36c1.28.12,2.24.29,3.19.28,5.98-.08,11.98.13,17.92-.4,8.27-.73,12.19-5.19,12.1-12.89-.08-7.15-4.31-11.73-12.28-12.26-6.76-.45-13.57-.09-20.94-.09Z"/>
      <path d="m491.49,538.01c-2.11-1.24-4.83-2.01-6.23-3.8-4.29-5.5-8-11.44-12.1-17.09-.88-1.22-2.37-2.72-3.66-2.8-5.27-.32-10.57-.13-16.35-.13v22.65h-5.11v-57.07c9.56,0,19.04-.59,28.42.16,9.67.78,15.11,6.72,15.65,15.12.65,9.99-3.03,15.19-12.98,18.39-.61.2-1.16.56-1.89.93,5.19,7.49,10.27,14.82,15.35,22.15l-1.1,1.5Zm-38.16-28.8c8,0,15.79.49,23.49-.15,6.45-.54,10.04-5.3,10.19-11.54.16-6.56-3.22-11.8-9.71-12.46-7.82-.8-15.78-.19-23.97-.19v24.34Z"/>
      <path d="m232.72,536.85c-3.4,1.21-5.79.22-6.45-3.24-2-10.42-8.21-13.78-18.36-12.08-4.54.76-9.31.25-13.97.08-3.05-.11-4.98.76-5.98,3.89-.9,2.84-2.59,5.42-3.51,8.26-1.12,3.48-3.12,4.36-6.67,2.95,6.7-15.64,13.37-31.21,20.03-46.78,1.11-2.6,1.97-5.35,3.41-7.75.76-1.27,2.53-2.71,3.83-2.7,1.58.01,4.02,1.09,4.58,2.37,7.79,17.82,15.33,35.76,22.91,53.67.17.41.13.9.18,1.34Zm-40.83-20.13h27.22c-4.56-10.76-8.89-20.98-13.64-32.21-4.8,11.39-9.14,21.68-13.58,32.21Z"/>
      <path d="m323.27,479.69h4.75v32.48c2.08-1.78,3.4-2.79,4.59-3.94,8.84-8.58,17.54-17.3,26.56-25.69,2.11-1.96,5.26-2.8,7.93-4.16.3.51.61,1.02.91,1.53-8.28,7.83-16.55,15.66-25.2,23.84,9.16,11.61,17.44,22.09,25.92,32.83-3.86,1.62-6.08.58-8.3-2.36-6.61-8.75-13.53-17.26-20.15-25.66-12.74,5.67-13.47,16.41-11.83,27.5-.81.62-1.05.96-1.3.97-1.14.06-2.28.03-3.86.03v-57.37Z"/>
      <path d="m388.08,479.28c12.39,0,24.34-.05,36.28.1.81.01,1.6,1.47,2.41,2.25-.94.82-1.86,2.34-2.82,2.36-8.32.19-16.64.1-24.96.1-1.79,0-3.57,0-5.64,0v21.72c8.81,0,17.41-.04,26.02.02,3.5.03,3.5.13,3.28,4.24h-29.15v22.66h33.11c.39.46.77.91,1.16,1.37-1.02,1.2-2.01,3.42-3.05,3.44-12.1.24-24.21.16-36.64.16v-58.42Z"/>
      <path d="m302.26,493.27c-1.38.98-2.56,1.82-3.99,2.84-5.79-11.39-15.15-14.46-26.84-12-1.76.37-3.51,1.05-5.11,1.89-10.9,5.7-15.24,22.77-9.05,35.37,5.44,11.08,19.87,15.94,31.31,10.09,3.11-1.59,5.86-4.4,7.98-7.24,1.96-2.64,3.4-2.61,5.57-.9-2.35,9.89-13.37,16.02-26.76,15.02-15.37-1.16-24.48-10.89-25.9-27.68-1.27-15.02,6.95-27.82,20.07-31.25,14.1-3.68,27.53,1.84,32.72,13.86Z"/>
      <path d="m49.4,484.15c-1.14-3.64-.03-4.85,3.15-4.83,13.64.06,27.28.06,40.91-.08,3.32-.03,4.14,1.25,3.09,4.7h-21.18v53.19h-5.42v-52.98h-20.55Z"/>
      <path d="m369.97,77.83c6.36,3,12.13,5.51,17.68,8.43,3.13,1.65,4.63,4.31,2.21,7.84-3,4.38-6.67,5.6-10.24,3.27-6.34-4.13-13.16-6.35-20.81-5.3-8.3,1.14-13.98,6.89-14.52,14.68-.62,8.86,2.94,13.99,11.88,16.49,6.08,1.7,12.34,2.78,18.4,4.52,19.43,5.6,27.8,25.26,18.55,43.31-4,7.8-10.83,12.09-18.86,14.48-3.29.98-4.84,2.21-4.36,5.76.31,2.29.1,4.66.07,6.99-.07,5.03-2.33,7.17-7.45,7.1-4.83-.06-6.67-2.06-6.68-7.24,0-3.49,1.25-7.83-.38-10.23-1.53-2.25-6.19-2.21-9.28-3.61-4.38-1.97-8.74-4.09-12.8-6.62-3.12-1.94-4.6-4.69-1.66-8.32,3.86-4.77,6.57-5.9,10.22-3.05,7.38,5.75,15.64,7.81,24.83,6.85,9.61-1.01,15.29-6.39,16.04-15.36.77-9.27-3.2-14.74-12.85-17.39-6.41-1.75-13.01-2.9-19.31-4.97-14.01-4.59-19.54-12.27-19.76-26.49-.21-13.78,6.41-24.16,19.3-28.32,5.04-1.62,6.21-3.87,5.97-8.72-.42-8.3,1.41-10.75,6.68-10.79,5.46-.05,7.15,2.57,7.15,11.06,0,1.99,0,3.98,0,5.61Z"/>
    </g>
  </g>
</svg>